<svg id="svg" version="1.1" xmlns="http://www.w3.org/2000/svg" xmlns:xlink="http://www.w3.org/1999/xlink" width="400" height="335.142658315936" viewBox="0, 0, 400,335.142658315936"><g id="svgg"><path id="path0" d="M182.324 0.175 C 150.518 2.985,123.243 17.360,104.039 41.434 C 69.216 85.085,72.793 148.549,112.301 188.046 C 119.834 195.577,123.581 198.465,125.818 198.466 C 129.531 198.466,129.341 198.719,139.032 180.877 C 149.615 161.391,149.372 162.662,143.637 156.772 C 131.057 143.850,124.426 127.738,124.426 110.090 C 124.426 68.095,163.126 36.805,204.267 45.538 C 211.787 47.134,210.811 48.085,221.545 28.688 C 231.146 11.337,231.150 11.327,229.772 8.629 C 227.246 3.684,199.186 -1.316,182.324 0.175 M251.372 22.977 C 249.474 24.753,233.335 54.293,233.078 56.462 C 232.778 58.991,233.322 60.303,235.935 63.357 C 257.556 88.622,261.414 122.684,245.374 146.692 C 229.848 169.930,202.776 180.529,174.718 174.352 C 170.983 173.530,169.504 173.584,168.511 174.579 C 167.879 175.213,144.048 218.718,141.930 223.104 C 132.483 242.668,154.027 262.725,172.582 251.639 C 177.238 248.858,178.330 247.380,185.661 233.960 C 188.923 227.989,191.915 222.523,192.310 221.813 L 193.029 220.523 196.097 220.337 C 255.357 216.750,300.371 169.443,300.472 110.647 C 300.529 77.266,286.088 47.148,258.915 23.978 C 255.561 21.119,253.633 20.863,251.372 22.977 M184.969 67.534 C 155.662 71.798,139.101 102.269,151.688 128.769 C 164.298 155.320,199.889 161.399,220.728 140.560 C 239.514 121.774,236.700 89.830,214.945 74.930 C 206.526 69.163,194.374 66.165,184.969 67.534 " stroke="none" fill="#742c64" fill-rule="evenodd"></path><path id="path1" d="M56.785 305.358 L 56.785 334.029 59.986 334.029 L 63.187 334.029 63.187 305.358 L 63.187 276.688 59.986 276.688 L 56.785 276.688 56.785 305.358 M291.719 282.116 L 291.719 287.543 298.121 287.543 L 304.523 287.543 304.523 282.116 L 304.523 276.688 298.121 276.688 L 291.719 276.688 291.719 282.116 M71.538 281.280 L 71.538 284.760 75.157 284.760 L 78.775 284.760 78.775 281.280 L 78.775 277.801 75.157 277.801 L 71.538 277.801 71.538 281.280 M22.825 278.381 C 9.562 280.723,0.250 292.367,0.250 306.611 C 0.250 332.203,28.439 344.271,48.105 327.098 C 50.232 325.240,50.237 325.331,47.905 323.080 C 45.632 320.886,45.750 320.906,44.056 322.408 C 28.535 336.163,6.959 326.914,6.959 306.505 C 6.959 286.497,27.360 277.136,43.153 289.896 C 45.469 291.767,44.927 291.840,47.362 289.330 C 49.891 286.721,49.903 286.894,47.042 284.503 C 40.958 279.416,31.089 276.922,22.825 278.381 M197.356 306.455 L 197.356 334.029 203.619 334.029 L 209.882 334.029 209.882 325.848 L 209.882 317.668 216.910 317.529 C 227.476 317.320,231.761 315.871,236.423 310.928 C 243.496 303.431,242.435 289.330,234.340 283.245 C 229.254 279.422,227.558 279.114,210.926 278.985 L 197.356 278.881 197.356 306.455 M390.627 281.172 C 386.203 281.977,384.146 286.662,386.526 290.511 C 388.890 294.335,395.001 294.342,397.332 290.523 C 400.286 285.684,396.309 280.138,390.627 281.172 M171.190 287.265 L 171.190 293.389 168.406 293.389 L 165.623 293.389 165.623 296.173 L 165.623 298.956 168.394 298.956 L 171.166 298.956 171.248 312.944 C 171.340 328.704,171.321 328.559,173.599 331.220 C 176.643 334.777,183.619 335.921,188.764 333.708 L 190.118 333.126 190.118 330.376 C 190.118 328.864,190.087 327.627,190.049 327.627 C 190.010 327.627,189.295 327.887,188.459 328.205 C 185.324 329.397,181.370 329.125,179.410 327.584 C 177.620 326.176,177.605 326.048,177.598 311.830 L 177.592 298.956 183.994 298.956 L 190.397 298.956 190.397 296.173 L 190.397 293.389 183.994 293.389 L 177.592 293.389 177.592 287.265 L 177.592 281.141 174.391 281.141 L 171.190 281.141 171.190 287.265 M358.525 286.430 L 358.525 291.719 356.019 291.719 L 353.514 291.719 353.514 297.008 L 353.514 302.296 356.019 302.296 L 358.525 302.296 358.534 313.083 C 358.547 327.027,358.903 329.093,361.771 331.857 C 365.277 335.236,373.699 335.804,379.173 333.030 L 380.515 332.350 380.515 327.483 C 380.515 324.807,380.421 322.617,380.306 322.617 C 380.191 322.617,379.422 322.874,378.596 323.188 C 376.403 324.021,373.898 324.197,372.651 323.605 C 370.819 322.735,370.772 322.446,370.772 311.788 L 370.772 302.296 375.644 302.296 L 380.515 302.296 380.515 297.008 L 380.515 291.719 375.644 291.719 L 370.772 291.719 370.772 286.430 L 370.772 281.141 364.649 281.141 L 358.525 281.141 358.525 286.430 M393.510 282.830 C 396.126 283.821,397.205 286.977,395.789 289.496 C 393.520 293.533,387.428 291.810,387.428 287.132 C 387.428 283.963,390.593 281.725,393.510 282.830 M389.701 287.096 L 389.701 290.327 390.397 290.327 C 391.038 290.327,391.093 290.227,391.093 289.045 C 391.093 287.990,391.171 287.792,391.533 287.931 C 391.775 288.024,392.083 288.100,392.218 288.100 C 392.353 288.100,392.598 288.601,392.763 289.214 C 393.040 290.242,393.137 290.327,394.031 290.327 C 395.098 290.327,395.147 289.848,394.269 288.003 C 393.946 287.325,393.951 287.151,394.301 286.800 C 395.653 285.449,394.473 284.105,391.816 283.971 L 389.701 283.864 389.701 287.096 M392.708 285.979 C 392.580 286.874,391.371 286.964,391.371 286.078 C 391.371 285.230,391.544 285.063,392.237 285.244 C 392.611 285.342,392.765 285.581,392.708 285.979 M221.897 290.452 C 229.623 292.089,231.183 301.651,224.330 305.366 L 222.547 306.333 216.214 306.421 L 209.882 306.509 209.882 298.279 L 209.882 290.049 214.962 290.054 C 218.258 290.057,220.693 290.196,221.897 290.452 M261.656 291.195 C 233.612 294.406,236.320 334.931,264.579 334.931 C 293.086 334.931,295.774 294.150,267.464 291.168 C 264.557 290.862,264.568 290.862,261.656 291.195 M332.787 291.183 C 330.239 291.570,327.453 293.037,325.162 295.199 L 323.173 297.075 323.173 294.397 L 323.173 291.719 317.049 291.719 L 310.926 291.719 310.926 312.874 L 310.926 334.029 317.049 334.029 L 323.173 334.029 323.173 321.275 C 323.173 306.802,323.210 306.491,325.162 304.372 C 327.875 301.430,333.065 301.406,335.564 304.324 C 337.328 306.385,337.370 306.775,337.370 321.136 L 337.370 334.029 343.493 334.029 L 349.617 334.029 349.612 318.928 C 349.607 302.336,349.549 301.617,347.946 298.257 C 345.457 293.043,339.337 290.187,332.787 291.183 M291.997 312.874 L 291.997 334.029 298.121 334.029 L 304.245 334.029 304.245 312.874 L 304.245 291.719 298.121 291.719 L 291.997 291.719 291.997 312.874 M100.024 292.570 C 80.829 294.508,76.330 323.592,93.807 332.753 C 101.596 336.835,111.619 335.440,118.045 329.377 C 120.368 327.186,120.366 327.317,118.112 325.330 L 116.296 323.729 115.198 324.634 C 104.652 333.328,91.323 329.499,89.486 317.247 L 89.290 315.936 105.367 315.936 L 121.444 315.936 121.288 312.387 C 120.718 299.376,112.106 291.350,100.024 292.570 M144.050 292.600 C 140.015 292.937,136.592 294.820,133.890 298.192 L 132.637 299.754 132.559 296.572 L 132.481 293.389 129.427 293.389 L 126.374 293.389 126.374 313.709 L 126.374 334.029 129.436 334.029 L 132.498 334.029 132.503 321.851 C 132.508 308.628,132.626 307.292,134.031 304.519 C 138.135 296.420,150.381 295.969,154.200 303.776 C 155.516 306.466,155.602 307.539,155.602 321.263 L 155.602 334.029 158.821 334.029 L 162.040 334.029 161.944 319.485 L 161.848 304.941 161.087 302.670 C 158.619 295.307,152.804 291.871,144.050 292.600 M71.816 313.709 L 71.816 334.029 75.017 334.029 L 78.219 334.029 78.219 313.709 L 78.219 293.389 75.017 293.389 L 71.816 293.389 71.816 313.709 M107.283 298.904 C 111.241 300.756,113.906 304.741,114.812 310.160 L 114.987 311.204 102.170 311.204 C 91.994 311.204,89.353 311.131,89.353 310.850 C 89.353 309.868,90.616 306.129,91.457 304.620 C 94.778 298.663,101.545 296.219,107.283 298.904 M268.524 302.338 C 273.094 304.048,276.198 309.856,275.308 315.031 C 272.874 329.185,253.010 326.486,253.928 312.125 C 254.428 304.299,261.353 299.655,268.524 302.338 " stroke="none" fill="#54545c" fill-rule="evenodd"></path><path id="path2" d="" stroke="none" fill="#783460" fill-rule="evenodd"></path><path id="path3" d="" stroke="none" fill="#783460" fill-rule="evenodd"></path><path id="path4" d="" stroke="none" fill="#783460" fill-rule="evenodd"></path></g></svg>